<?xml version="1.0" encoding="UTF-8" standalone="no"?>
<svg
   viewBox="0 0 257.36667 52.78533"
   version="1.1"
   id="svg63"
   xmlns:xlink="http://www.w3.org/1999/xlink"
   xmlns="http://www.w3.org/2000/svg"
   xmlns:svg="http://www.w3.org/2000/svg">
  <defs
     id="defs39">
    <linearGradient
       id="c">
      <stop
         offset="0%"
         stop-color="#e8ab00"
         id="stop2" />
      <stop
         offset="100%"
         stop-color="#ffe595"
         id="stop4" />
    </linearGradient>
    <linearGradient
       id="a">
      <stop
         offset="0%"
         stop-color="#d18d00"
         id="stop7" />
      <stop
         offset="21%"
         stop-color="#e8ab00"
         id="stop9" />
      <stop
         offset="30%"
         stop-color="#ffdc00"
         id="stop11" />
      <stop
         offset="54%"
         stop-color="#ffcb00"
         id="stop13" />
      <stop
         offset="67%"
         stop-color="#ffdc00"
         id="stop15" />
      <stop
         offset="100%"
         stop-color="#ffcb00"
         id="stop17" />
    </linearGradient>
    <linearGradient
       xlink:href="#a"
       id="e"
       x1="27.19727"
       x2="27.19727"
       y1="1326.7123"
       y2="1563.1282"
       gradientTransform="scale(4.08226 .24496)"
       gradientUnits="userSpaceOnUse" />
    <linearGradient
       id="b">
      <stop
         offset="0%"
         stop-color="#d18d00"
         id="stop21" />
      <stop
         offset="21%"
         stop-color="#e8ab00"
         id="stop23" />
      <stop
         offset="30%"
         stop-color="#ffdc00"
         id="stop25" />
      <stop
         offset="54%"
         stop-color="#ffcb00"
         id="stop27" />
      <stop
         offset="67%"
         stop-color="#ffdc00"
         id="stop29" />
      <stop
         offset="86%"
         stop-color="#d7a000"
         id="stop31" />
      <stop
         offset="100%"
         stop-color="#d49d00"
         id="stop33" />
    </linearGradient>
    <linearGradient
       xlink:href="#b"
       id="g"
       x1="14.95792"
       x2="14.95792"
       y1="3711.681"
       y2="3842.0089"
       gradientTransform="scale(7.42131 .13475)"
       gradientUnits="userSpaceOnUse" />
    <linearGradient
       xlink:href="#c"
       id="d"
       x1="28.10681"
       x2="279.0114"
       y1="1244.6185"
       y2="1244.6185"
       gradientTransform="scale(3.87499 .25807)"
       gradientUnits="userSpaceOnUse" />
    <linearGradient
       xlink:href="#c"
       id="f"
       x1="16.95365"
       x2="168.27933"
       y1="3193.7289"
       y2="3193.7289"
       gradientTransform="scale(6.4242 .15566)"
       gradientUnits="userSpaceOnUse" />
  </defs>
  <path
     fill="#00722c"
     fill-rule="evenodd"
     d="M16.31114 25.03358h-5.73008v4.83267h5.73008c1.70003 0 2.87721-.18085 3.52515-.53745.65397-.35671.97806-.98216.97806-1.87116 0-.89948-.3241-1.5299-.97806-1.8865-.64794-.35672-1.82512-.53756-3.52515-.53756zm-16.1879 17.579V20.21614h20.18012c3.81799 0 6.76415.63571 8.8383 1.90206 2.07383 1.26646 3.11406 3.0549 3.11406 5.36538 0 2.30505-1.04023 4.08853-3.11406 5.35477-2.07415 1.26635-5.02031 1.90207-8.8383 1.90207h-9.7223v7.87214zm39.1231-7.72221h6.6957l-3.24528-7.87734zm-14.63673 7.7222 11.69712-22.39642H49.573l10.91248 22.39642H49.15575l-.89689-2.19662H36.7799l-.9652 2.19662zm32.43352 0V20.21615h12.3697L79.8329 33.11737V20.21615h10.12725v22.39642H78.22607l-11.3293-13.1133v13.1133zm43.20255-11.19039c0 1.94879.59182 3.43715 1.78175 4.4657 1.18311 1.02888 2.89579 1.54555 5.1321 1.54555 2.23586 0 3.94853-.51667 5.1322-1.54556 1.18938-1.02854 1.78133-2.5169 1.78133-4.46569 0-1.95903-.59195-3.458-1.78133-4.49702-1.18367-1.0388-2.89634-1.5608-5.1322-1.5608-2.23631 0-3.94899.522-5.1321 1.5608-1.18993 1.03902-1.78175 2.538-1.78175 4.49702zm-11.24207 0c0-3.89742 1.5258-6.83829 4.5778-8.81798 3.05805-1.98485 7.57983-2.9772 13.57812-2.9772 5.99784 0 10.51951.99235 13.57757 2.9772 3.05223 1.9797 4.57822 4.92056 4.57822 8.81798 0 3.88673-1.52599 6.82265-4.57822 8.80232-3.05806 1.98498-7.57973 2.9773-13.57757 2.9773-5.99829 0-10.52007-.99232-13.57813-2.9773-3.052-1.97967-4.5778-4.91559-4.5778-8.80232zm55.88963-11.20603c2.34828 0 4.22939.09284 5.64274.27943 1.40785.1857 2.51013.4753 3.3014.8732 1.00906.49096 1.7814 1.15803 2.31076 1.99004.52914.83203.79084 1.79377.79084 2.88414 0 1.32321-.39217 2.48621-1.18311 3.48904-.79127 1.0079-1.88122 1.73127-3.27036 2.17588 1.18994.41346 2.03092.9253 2.5101 1.53508.47964.60997.76026 1.6903.84728 3.23586.01233.17047.02484.40838.03728.70805.1682 2.9305.64145 4.55356 1.42645 4.87926v.34644H145.6844c-.3551-.4755-.54806-1.39043-.58534-2.75494-.02498-.79624-.06877-1.4111-.13123-1.84531-.1119-.82177-.44191-1.39555-.99645-1.72644-.54814-.33607-1.47582-.50133-2.77765-.50133h-6.24105v6.82802h-10.60092V20.21615zm-9.94056 9.67595h6.09145c1.59444 0 2.72188-.15492 3.36947-.47046.654-.31001.97774-.83709.97774-1.57118 0-.72879-.30482-1.23555-.9214-1.52471-.61691-.28419-1.8436-.42913-3.68113-.42913h-5.83613zm31.73585 4.99827h6.69584l-3.24528-7.87734zm-14.6366 7.7222 11.69713-22.39642h13.26626l10.91227 22.39642h-11.32952l-.89688-2.19662h-11.47897l-.9652 2.19662zm32.47081 0V20.21615h15.50874l4.56557 13.64557 4.92673-13.64557h15.2908v22.39642h-9.69164V25.12123l-6.42125 17.49134h-8.15914l-6.3471-17.49134v17.49134zm51.48014-7.7222h6.69573l-3.24517-7.87734zm-14.6366 7.7222 11.69692-22.39642h13.26647l10.91205 22.39642h-11.3293l-.8971-2.19662h-11.47875l-.96563 2.19662z"
     id="path41" />
  <path
     fill="#00521f"
     fill-rule="evenodd"
     d="m 225.22394,35.22633 c 4.18624,-1.62438 8.40105,-3.20841 12.57866,-4.4445 l -1.79972,4.10854 h 6.69573 l -2.01903,-4.90078 c 3.25672,-0.83116 6.48104,-1.4044 9.64308,-1.578 l 6.91906,14.20098 h -11.3293 l -0.8971,-2.19651 h -11.47875 l -0.96563,2.19651 h -17.448 v -3.51141 c 3.19167,-1.1616 6.43263,-2.44883 9.69164,-3.71581 v 0.62468 z m -193.6232,-6.3669 0.01948,-0.0011 0.18169,-0.01686 -0.0032,0.0065 0.3269,-0.01945 0.003,-0.01535 c 2.96228,-0.24646 6.20646,-0.32279 9.87473,-0.21674 l -2.75699,6.29404 h 6.69581 l -2.57355,-6.24668 c 2.633,0.10538 5.47886,0.29932 8.5916,0.58846 0.71594,0.06638 1.42365,0.14896 2.1252,0.24527 l 2.95774,6.07049 v -5.578 c 3.38418,0.66027 6.63422,1.61412 9.85364,2.67983 v 9.96284 H 49.15575 L 48.25886,40.41619 H 36.78 l -0.9653,2.19652 H 24.6095 l 5.47272,-10.47824 0.06927,-0.02152 c -0.30363,0.25848 -0.64034,0.49996 -1.00983,0.72555 -2.07404,1.26645 -5.0202,1.90206 -8.8383,1.90206 h -9.7223 v 7.87215 H 0.12324 v -3.14519 c 12.3177,-5.72478 19.69357,-9.53444 31.47708,-10.6073 z m 39.16202,5.1145 c 6.12193,2.14614 12.28235,4.43283 19.1974,5.60049 v 3.03815 H 78.22618 Z m 22.5442,6.06681 c 1.88541,0.20582 3.83103,0.32007 5.84932,0.32007 9.01999,0 16.99072,-1.33673 24.47695,-2.92174 -0.7287,1.07633 -1.69365,2.00541 -2.89613,2.78543 -3.05795,1.98498 -7.57984,2.9773 -13.57757,2.9773 -5.99829,0 -10.52007,-0.99232 -13.57813,-2.9773 -0.09235,-0.05996 -0.183838,-0.121216 -0.27445,-0.18376 z m 31.0449,-2.75484 c 10.09806,-2.1668 19.33935,-4.7249 29.11991,-4.97504 0.68048,0.32936 1.19004,0.70737 1.52395,1.1321 0.35404,0.45022 0.59984,1.15673 0.73906,2.11783 l 1.68145,-3.21924 c 3.18268,0.13306 6.43996,0.53941 9.81657,1.30615 l -0.54427,1.24267 h 5.12757 c 4.02498,1.27447 8.3575,1.98985 12.82533,4.46439 l 9.55402,3.25781 c -17.59738,0 0,0 -17.59738,0 l -0.89688,-2.19651 h -11.47897 l -0.9652,2.19651 H 145.6844 c -0.3552,-0.47561 -0.54806,-1.39043 -0.58534,-2.75484 -0.0251,-0.79623 -0.0688,-1.4112 -0.13123,-1.84541 -0.1118,-0.82177 -0.44191,-1.39555 -0.99645,-1.72644 -0.54803,-0.33607 -1.47582,-0.50122 -2.77776,-0.50122 h -6.24083 v 6.82791 h -10.60093 z m 78.9945,5.32667 c 1.93916,-0.39714 3.9142,-0.92011 5.91765,-1.53183 l -0.56232,1.53183 z"
     id="path43" />
  <path
     fill="none"
     d="M2.21975 11.45016h12.42343v4.8785H2.21975c-.84476 0-1.53551-.10843-1.53551-.24096v-4.39661c0-.13264.69075-.24093 1.5355-.24093z"
     id="path45" />
  <path
     fill="url(#d)"
     d="M108.9135 362.3868H886.371v.0469c37.5679-.0008 74.5627-5.2658 106.0014-13.193 5.3476-1.3474 10.2983-2.6997 14.8445-4.0459 23.9828-7.0966 43.409-15.5819 55.4882-24.0018l18.4603 17.9425c-14.511 10.1138-37.0427 20.0678-64.325 28.1425-5.424 1.6039-10.7963 3.0829-16.0772 4.414-33.8486 8.5347-73.7593 14.203-114.3922 14.2042v.0466H108.9135z"
     transform="translate(-28.8167 -84.98231) scale(.26458)"
     id="path47" />
  <path
     fill="url(#e)"
     d="M111.0263 364.4683h782.5693c37.1503 0 83.7187-5.9783 118.2121-17.5988 17.4029-5.8632 36.2767-12.5365 50.1995-21.8749l14.1301 14.1299c-16.6354 10.5685-41.3824 20.0057-59.7397 25.3438-51.1897 14.8857-91.9752 18.4393-122.802 18.4393H111.0263Z"
     transform="translate(-28.8167 -84.98231) scale(.26458)"
     id="path49" />
  <path
     fill="none"
     d="M226.86618 9.7444c4.27437-.74436 8.40148-1.73033 12.02457-2.95083 4.60452-1.5513 9.59821-3.31695 13.28195-5.78773l3.7386 3.73854c-4.40146 2.79624-10.9491 5.29317-15.80614 6.70554-4.7499 1.38126-9.16106 2.39274-13.23898 3.12531zM.78991 11.45016h9.27918v4.8785H.7899c-.05813 0-.10567-.10843-.10567-.24096v-4.39672c0-.13242.04754-.24082.10567-.24082z"
     id="path51" />
  <path
     fill="url(#f)"
     d="M108.9135 497.141h972.1451v23.5556H108.9135Z"
     transform="translate(-28.8167 -84.98231) scale(.26458)"
     id="path53" />
  <path
     fill="url(#g)"
     d="M111.0074 500.1382h967.2036v17.5613H111.0074Z"
     transform="translate(-28.8167 -84.98231) scale(.26458)"
     id="path55" />
  <path
     fill="none"
     d="M254.54692 51.58407v.40838H4.17338c11.96525-1.91212 25.71144.30795 39.0943-2.0775 22.6025-4.02911 57.15712 2.8412 79.27181.02851 15.17788-1.93058 31.54032 1.11438 47.93745-.6011 22.88995-2.39467 52.83433.99113 84.06998 2.2417z"
     id="path57" />
  <path
     fill="none"
     d="M.78285 47.18992h9.1961v4.87862H.78285c-.05763 0-.10475-.10842-.10475-.24095v-4.39672c0-.13253.04712-.24095.10475-.24095zm146.46844-31.26965v.40838H.07332c7.03357-1.91211 15.11392.30798 22.98083-2.0775 13.28653-4.02908 33.5989 2.84122 46.59879.02854 8.92196-1.9306 18.54036 1.11438 28.17926-.60113 13.45538-2.39466 31.05772.99113 49.41909 2.24171zM1.0746 21.80474h8.30657V41.3074H1.0746Zm30.87823 9.08507-5.64155 10.4176H35.074l1.10593-2.1804h12.84642l1.02087 2.1804h15.82404v-10.4176H58.2991v8.68233l-4.3458-8.92458zm218.7203 0 4.8293 10.4176h-8.76273l-1.10604-2.1804h-12.84631l-1.02098 2.1804h-15.82393v-10.4176h7.90662v8.68233l4.39346-8.68233zm-53.46147 0 3.75052 10.4176h7.547l3.56208-10.4176h-5.6969l-1.85158 4.66265-1.99395-4.66265zm-37.90093 0-3.75171 6.92759c-1.03513-3.79407-4.1389-5.81679-7.04162-6.92759h-23.21192v10.4176h8.79625v-6.35198h9.77204c2.39284.56546 1.55345 4.3417 2.29262 6.35198h16.26542l1.10593-2.1804h12.84642l1.02087 2.1804h15.82404v-10.4176h-7.57216v8.68233l-4.3457-8.92458zm-68.85268 0c.17383 5.20864 4.11858 11.59942 17.10013 11.02326 8.18724-.3633 15.57014-1.67765 16.79347-11.02326h-8.45608c.87384 5.0279-4.88381 7.45231-8.09784 7.45231-3.71896 0-10.22691-2.06097-9.853-7.4523h-7.48668zm-13.69713 0H69.6996l8.933 10.4176h10.37912l.00159-10.4176h-8.16885V35.808z"
     id="path59" />
  <path
     fill="#006d2a"
     fill-rule="evenodd"
     d="M254.17489 10.78233c.5361 0 1.05912.13726 1.57064.41325.50999.2745.90877.66892 1.19346 1.18044.28464.51292.42767 1.0475.42767 1.60237 0 .55049-.14018 1.08082-.42188 1.58797-.28035.50859-.67336.903-1.18052 1.18335-.50712.28178-1.03737.42188-1.58937.42188-.55335 0-1.0836-.1401-1.59084-.42188-.50715-.28035-.90157-.67476-1.18335-1.18335-.2817-.50715-.4233-1.03748-.4233-1.58797 0-.55486.14303-1.08945.42907-1.60237.28755-.51152.68633-.90594 1.1964-1.18044.51151-.27599 1.03454-.41325 1.57202-.41325zm0 .52882c-.44935 0-.88713.1156-1.31191.3453-.4248.22974-.75714.5592-.99698.98685-.23985.42772-.35978.8727-.35978 1.33509 0 .46095.11843.90164.35401 1.32352.2355.42196.56489.75134.98827.98685.42336.23558.8655.354 1.32639.354.4595 0 .90164-.11842 1.325-.354.42331-.23551.7528-.56489.98687-.98685.23405-.42188.35105-.86257.35105-1.32352 0-.46239-.1199-.90737-.35832-1.3351-.23837-.42764-.57068-.7571-.99698-.98683-.42624-.22971-.8626-.34531-1.30762-.34531zm-1.40296 4.43002v-3.43304h1.18192c.40455 0 .69644.0318.87704.09532.18204.06361.32507.17341.43344.33235.10695.15748.16042.32512.16042.50286 0 .2499-.08961.46959-.27022.65453-.17917.18637-.41754.2904-.7152.3135.12134.05054.21958.11129.29182.1821.13874.13432.30781.3612.50866.68055l.41902.67183h-.67337l-.30628-.54036c-.23984-.4263-.43492-.6936-.5823-.80047-.10112-.07807-.24854-.11707-.44357-.1156h-.32655v1.45643zm.55483-1.93325h.67329c.3222 0 .54187-.0477.65886-.14304.11708-.0954.17635-.22251.17635-.37859 0-.1011-.02897-.19217-.08528-.27165-.05633-.08085-.1344-.1401-.23407-.1791-.10118-.03907-.28612-.05926-.55772-.05926h-.63143z"
     id="path61" />
</svg>
